<svg width="672" height="712" viewBox="0 0 672 712" fill="none" xmlns="http://www.w3.org/2000/svg">
<path d="M335.985 237.503C274.068 237.503 224.15 290.903 224.15 356C224.15 421.097 274.548 474.497 335.985 474.497C397.422 474.497 447.82 421.097 447.82 356C447.82 290.903 397.422 237.503 335.985 237.503ZM671.97 356C671.97 306.669 671.97 258.354 669.57 209.023C667.17 152.063 654.691 101.206 615.333 60.0114C575.974 18.3086 528.456 5.08571 474.699 2.54285C428.141 -2.46295e-06 382.543 0 335.985 0C289.427 0 243.829 -2.46295e-06 197.271 2.54285C143.514 5.08571 95.5157 18.3086 56.6375 60.0114C17.2792 101.714 4.79978 152.063 2.39989 209.023C-2.32448e-06 258.354 0 306.669 0 356C0 405.331 -2.32448e-06 453.646 2.39989 502.977C4.79978 559.937 17.2792 610.794 56.6375 651.989C95.9957 693.691 143.514 706.914 197.271 709.457C243.829 712 289.427 712 335.985 712C382.543 712 428.141 712 474.699 709.457C528.456 706.914 576.454 693.691 615.333 651.989C654.691 610.286 667.17 559.937 669.57 502.977C672.45 454.154 671.97 405.331 671.97 356ZM335.985 538.577C240.469 538.577 163.673 457.206 163.673 356C163.673 254.794 240.469 173.423 335.985 173.423C431.501 173.423 508.297 254.794 508.297 356C508.297 457.206 431.501 538.577 335.985 538.577ZM515.497 208.514C493.418 208.514 475.179 189.697 475.179 165.794C475.179 141.891 492.938 123.074 515.497 123.074C538.056 123.074 555.815 141.891 555.815 165.794C555.937 171.365 554.977 176.903 552.995 182.064C551.014 187.226 548.053 191.901 544.296 195.8C540.616 199.781 536.204 202.918 531.332 205.018C526.461 207.117 521.235 208.134 515.977 208.006L515.497 208.514Z" fill="#75743C"/>
</svg>
