<svg width="666" height="670" viewBox="0 0 666 670" fill="none" xmlns="http://www.w3.org/2000/svg">
<path d="M616.735 0.00468433H49.245C42.8659 -0.0839105 36.5318 1.08498 30.6044 3.44459C24.6771 5.80421 19.2727 9.30833 14.6997 13.7568C10.1268 18.2053 6.47493 23.5111 3.95273 29.3711C1.43053 35.2311 0.0873812 41.5305 0 47.9097V622.1C0.0873812 628.479 1.43053 634.778 3.95273 640.638C6.47493 646.498 10.1268 651.804 14.6997 656.252C19.2727 660.701 24.6771 664.205 30.6044 666.565C36.5318 668.924 42.8659 670.093 49.245 670.005H616.735C623.114 670.093 629.448 668.924 635.376 666.565C641.303 664.205 646.707 660.701 651.28 656.252C655.853 651.804 659.505 646.498 662.027 640.638C664.549 634.778 665.893 628.479 665.98 622.1V47.9097C665.893 41.5305 664.549 35.2311 662.027 29.3711C659.505 23.5111 655.853 18.2053 651.28 13.7568C646.707 9.30833 641.303 5.80421 635.376 3.44459C629.448 1.08498 623.114 -0.0839105 616.735 0.00468433ZM202.005 560.795H101.505V259.295H202.005V560.795ZM151.755 217.085C137.895 217.085 124.602 211.579 114.802 201.778C105.001 191.977 99.495 178.685 99.495 164.825C99.495 150.964 105.001 137.672 114.802 127.871C124.602 118.071 137.895 112.565 151.755 112.565C159.115 111.73 166.568 112.459 173.626 114.705C180.685 116.95 187.189 120.661 192.714 125.595C198.239 130.529 202.659 136.573 205.686 143.334C208.712 150.094 210.277 157.418 210.277 164.825C210.277 172.232 208.712 179.555 205.686 186.316C202.659 193.076 198.239 199.121 192.714 204.054C187.189 208.988 180.685 212.699 173.626 214.945C166.568 217.19 159.115 217.919 151.755 217.085ZM564.475 560.795H463.975V398.99C463.975 358.455 449.57 331.99 413.055 331.99C401.754 332.072 390.75 335.617 381.526 342.146C372.302 348.675 365.3 357.874 361.465 368.505C358.843 376.379 357.708 384.671 358.115 392.96V560.46H257.615V258.96H358.115V301.505C367.245 285.663 380.523 272.612 396.521 263.757C412.518 254.902 430.628 250.58 448.9 251.255C515.9 251.255 564.475 294.47 564.475 387.265V560.795Z" fill="#75743C"/>
</svg>
